<mxfile host="app.diagrams.net" agent="Mozilla/5.0 (X11; Ubuntu; Linux x86_64; rv:135.0) Gecko/20100101 Firefox/135.0" version="26.0.11">
  <diagram name="Page-1" id="lCcGunZqnqozIDzteoiA">
    <mxGraphModel dx="574" dy="329" grid="1" gridSize="10" guides="1" tooltips="1" connect="1" arrows="1" fold="1" page="1" pageScale="1" pageWidth="850" pageHeight="1100" math="1" shadow="0">
      <root>
        <mxCell id="0" />
        <mxCell id="1" parent="0" />
        <mxCell id="1eH6ub5CrHDPnZLHbSoY-13" value="&lt;div&gt;$$f_{out}(t) = f_{BB}(t) \cdot f_{c}(t)$$&lt;/div&gt;" style="text;html=1;align=center;verticalAlign=middle;whiteSpace=wrap;rounded=0;strokeWidth=2;fontSize=20;" vertex="1" parent="1">
          <mxGeometry x="310" y="430" width="240" height="30" as="geometry" />
        </mxCell>
      </root>
    </mxGraphModel>
  </diagram>
</mxfile>
